<?xml version="1.0" encoding="UTF-8"?>
<svg id="Layer_2" data-name="Layer 2" xmlns="http://www.w3.org/2000/svg" viewBox="0 0 18.45 18.43">
  <defs>
    <style>
      .cls-1 {
        fill: #bcbec0;
      }

      .cls-2 {
        fill: #1d1d1b;
      }
    </style>
  </defs>
  <g id="Layer_1-2" data-name="Layer 1">
    <g>
      <path class="cls-1" d="M18.44,9.21c0,5.09-4.13,9.22-9.22,9.22S0,14.3,0,9.21,4.14,0,9.23,0s9.22,4.13,9.22,9.21h-.01Z"/>
      <path class="cls-2" d="M9.24,5.04c1.42,0,1.59,0,2.15.03.52.02.8.11.99.18.25.1.43.21.61.4.19.19.3.36.4.61.07.19.16.47.18.99.03.56.03.73.03,2.15s0,1.59-.03,2.15c-.02.52-.11.8-.18.99-.1.25-.21.43-.4.61-.19.19-.36.3-.61.4-.19.07-.47.16-.99.18-.56.03-.73.03-2.15.03s-1.59,0-2.15-.03c-.52-.02-.8-.11-.99-.18-.25-.1-.43-.21-.61-.4-.19-.19-.3-.36-.4-.61-.07-.19-.16-.47-.18-.99-.03-.56-.03-.73-.03-2.15s0-1.59.03-2.15c.02-.52.11-.8.18-.99.1-.25.21-.43.4-.61.19-.19.36-.3.61-.4.19-.07.47-.16.99-.18.56-.03.73-.03,2.15-.03M9.24,4.08c-1.45,0-1.63,0-2.2.03s-.95.12-1.29.25c-.35.14-.65.32-.94.61-.3.3-.48.59-.61.94-.13.34-.22.73-.25,1.29-.03.57-.03.75-.03,2.2s0,1.63.03,2.2.12.95.25,1.29c.14.35.32.65.61.94.3.3.59.48.94.61.34.13.73.22,1.29.25.57.03.75.03,2.2.03s1.63,0,2.2-.03.95-.12,1.29-.25c.35-.14.65-.32.94-.61.3-.3.48-.59.61-.94.13-.34.22-.73.25-1.29.03-.57.03-.75.03-2.2s0-1.63-.03-2.2c-.03-.57-.12-.95-.25-1.29-.14-.35-.32-.65-.61-.94-.3-.3-.59-.48-.94-.61-.34-.13-.73-.22-1.29-.25-.57-.03-.75-.03-2.2-.03"/>
      <path class="cls-2" d="M9.24,6.67c-1.51,0-2.74,1.22-2.74,2.74s1.22,2.74,2.74,2.74,2.74-1.22,2.74-2.74-1.22-2.74-2.74-2.74M9.24,11.18c-.98,0-1.78-.8-1.78-1.78s.8-1.78,1.78-1.78,1.78.8,1.78,1.78-.8,1.78-1.78,1.78"/>
      <path class="cls-2" d="M12.72,6.56c0,.35-.29.64-.64.64s-.64-.29-.64-.64.29-.64.64-.64.64.29.64.64"/>
    </g>
  </g>
</svg>