<?xml version="1.0" encoding="UTF-8"?>
<svg id="Layer_2" data-name="Layer 2" xmlns="http://www.w3.org/2000/svg" viewBox="0 0 18.4 18.4">
  <defs>
    <style>
      .cls-1 {
        fill: #bcbec0;
      }

      .cls-2 {
        fill: #1d1d1b;
      }
    </style>
  </defs>
  <g id="Layer_1-2" data-name="Layer 1">
    <g>
      <path class="cls-1" d="M18.4,9.2c0,5.08-4.12,9.2-9.2,9.2S0,14.28,0,9.2,4.12,0,9.2,0s9.2,4.12,9.2,9.2Z"/>
      <rect class="cls-2" x="5.22" y="7.39" width="1.9" height="5.9"/>
      <path class="cls-2" d="M6.16,6.62c.62,0,1.12-.49,1.12-1.09s-.5-1.09-1.12-1.09-1.12.49-1.12,1.09.5,1.09,1.12,1.09Z"/>
      <path class="cls-2" d="M10.15,10.19c0-.83.4-1.32,1.16-1.32.7,0,1.03.47,1.03,1.32v3.1h1.89v-3.73c0-1.58-.93-2.34-2.23-2.34s-1.85.97-1.85.97v-.79h-1.82v5.9h1.82v-3.1h0Z"/>
    </g>
  </g>
</svg>